<?xml version="1.0" encoding="utf-8"?>
<!-- Generator: Adobe Illustrator 27.5.0, SVG Export Plug-In . SVG Version: 6.00 Build 0)  -->
<svg version="1.1" id="teacher_in_front_of_chalkboard"
	 xmlns="http://www.w3.org/2000/svg" xmlns:xlink="http://www.w3.org/1999/xlink" x="0px" y="0px" viewBox="0 0 4000 3000"
	 style="enable-background:new 0 0 4000 3000;" xml:space="preserve">
<g id="teacher_in_front_of_chalkboard_1_">
	<rect id="bg" style="fill:#F0EEE9;" width="4000" height="3000"/>
	<g id="chalkboard">
		<g>
			<rect x="327.288" y="455.218" style="fill:#D3A981;" width="3150.253" height="1961.318"/>
			<g>
				<path style="fill:#9E7F61;" d="M3413.024,527.446c15.376-17.57,30.752-35.139,46.128-52.709c1.758-2.009,2.125-5.271,0-7.222
					c-1.927-1.769-5.343-2.147-7.222,0c-15.376,17.57-30.752,35.139-46.128,52.708c-1.758,2.009-2.125,5.271,0,7.222
					C3407.729,529.215,3411.145,529.593,3413.024,527.446L3413.024,527.446z"/>
				<path style="fill:#9E7F61;" d="M401.462,521.247c-15.841-13.225-30.958-27.311-45.249-42.198
					c-4.03-4.199-7.993-8.462-11.892-12.783c-1.795-1.989-5.421-1.961-7.222,0c-1.95,2.125-1.914,5.1,0,7.222
					c13.825,15.32,28.483,29.883,43.909,43.59c4.351,3.866,8.764,7.661,13.231,11.391c2.048,1.71,5.242,2.157,7.222,0
					C403.195,526.581,403.652,523.075,401.462,521.247L401.462,521.247z"/>
			</g>
			<g>
				<polygon style="fill:#9E7F61;" points="327.288,2416.535 339.886,2416.535 406.615,2337.231 				"/>
				<g>
					<polygon style="fill:#9E7F61;" points="3398.214,2337.231 3477.542,2416.535 3469.622,2416.535 					"/>
				</g>
			</g>
			
				<rect x="1001.059" y="-59.924" transform="matrix(6.123234e-17 -1 1 6.123234e-17 466.5384 3338.2903)" style="fill:#233837;" width="1802.71" height="2991.599"/>
			<path style="fill:#304D4B;" d="M464.532,2074.969c-10.891-238.736-10.891-1056.925,0-1295.662
				c5.041-110.494,93.267-199.019,203.741-204.475c886.906-43.8,2551.778-32.801,2644.352-9.89
				c92.573,22.911,73.958,1238.496,56.061,1610.171c-5.613,116.574-108.076,128.168-224.741,124.969
				c-817.667-22.416-1658.004,19.742-2475.671-20.639C557.799,2273.989,469.573,2185.463,464.532,2074.969z"/>
			<path style="fill:#425E5C;" d="M3173.579,2290.07c-8.831,0-390.599-7.803-617.197-7.803c-165.803,0-831.303,4.982-997.533,4.982
				c-357.882,0-632.027-5.921-888.896-19.198c-44.955-2.323-87.207-21.975-118.972-55.336
				c-31.765-33.361-50.389-77.644-52.44-124.693c-10.789-247.495-10.789-1084.315,0-1331.81
				c2.051-47.048,20.674-91.332,52.44-124.694c31.765-33.361,74.017-53.013,118.972-55.336
				c546.85-28.263,1304.563-31.314,1604.952-31.314c263.905,0,514.276,2.118,704.99,5.964
				c246.989,4.981,329.351,27.547,335.921,53.906c6.536,26.218,12.229,61.661,16.921,105.345
				c8.583,79.907,13.895,187.83,15.786,320.77c4.042,283.994,34.068,1093.454-10.42,1174.474
				C3293.615,2286.348,3257.277,2290.07,3173.579,2290.07z"/>
		</g>
		<g>
			<path style="fill:#44615F;" d="M970.36,739.795c197.222-6.29,394.516-10.276,591.831-11.922
				c196.308-1.638,392.635-0.971,588.928,2c110.729,1.676,221.447,4.092,332.144,7.228c24.106,0.683,24.087-36.766,0-37.448
				c-197.243-5.588-394.55-8.871-591.87-9.814c-196.313-0.938-392.636,0.427-588.917,4.097
				c-110.723,2.07-221.431,4.88-332.116,8.411C946.322,703.113,946.215,740.565,970.36,739.795L970.36,739.795z"/>
			<path style="fill:#44615F;" d="M2646.688,899.943c29.466,0,58.933,0,88.399,0c29.466,0,58.933,0,88.399,0
				c16.622,0,33.244,0,49.866,0c4.801,0,9.844-2.089,13.24-5.484c3.247-3.248,5.693-8.576,5.484-13.24
				c-0.217-4.842-1.808-9.865-5.484-13.24c-3.664-3.363-8.167-5.484-13.24-5.484c-29.466,0-58.933,0-88.399,0
				c-29.467,0-58.933,0-88.399,0c-16.622,0-33.244,0-49.866,0c-4.801,0-9.844,2.089-13.24,5.484
				c-3.248,3.247-5.693,8.576-5.484,13.24c0.217,4.843,1.808,9.865,5.484,13.24C2637.112,897.822,2641.615,899.943,2646.688,899.943
				L2646.688,899.943z"/>
			<path style="fill:#44615F;" d="M1834.913,2166.068c169.946,0,339.891,0,509.837,0s339.892,0,509.837,0
				c95.867,0,191.733,0,287.6,0c10.118,0,18.724-8.606,18.724-18.724c0-10.155-8.569-18.724-18.724-18.724
				c-169.946,0-339.891,0-509.837,0s-339.892,0-509.837,0c-95.867,0-191.734,0-287.6,0c-10.118,0-18.724,8.605-18.724,18.724
				C1816.189,2157.499,1824.758,2166.068,1834.913,2166.068L1834.913,2166.068z"/>
		</g>
		<g>
			<path style="fill:#9E7F61;" d="M3413.024,527.446c15.376-17.57,30.752-35.139,46.128-52.709c1.758-2.009,2.125-5.271,0-7.222
				c-1.927-1.769-5.343-2.147-7.222,0c-15.376,17.57-30.752,35.139-46.128,52.708c-1.758,2.009-2.125,5.271,0,7.222
				C3407.729,529.215,3411.145,529.593,3413.024,527.446L3413.024,527.446z"/>
			<path style="fill:#9E7F61;" d="M401.462,521.247c-15.841-13.225-30.958-27.311-45.249-42.198
				c-4.03-4.199-7.993-8.462-11.892-12.783c-1.795-1.989-5.421-1.961-7.222,0c-1.95,2.125-1.914,5.1,0,7.222
				c13.825,15.32,28.483,29.883,43.909,43.59c4.351,3.866,8.764,7.661,13.231,11.391c2.048,1.71,5.242,2.157,7.222,0
				C403.195,526.581,403.652,523.075,401.462,521.247L401.462,521.247z"/>
		</g>
		<g>
			<polygon style="fill:#C49D78;" points="3398.214,2338.313 406.615,2338.313 293.944,2376.561 3517.97,2376.561 			"/>
			<rect x="293.944" y="2376.561" style="fill:#DCBA9A;" width="3224.026" height="39.974"/>
		</g>
		<g>
			<g>
				<path style="fill:#EEBE5E;" d="M1142.564,2236.667c-20.313,0-43.594,0-65.974,0c0,0-44.565,0-93.424,0
					c-22.381,0-45.662,0-65.975,0c-42.536,0-39.962,29.599-39.962,29.599v77.207h105.936h93.424h105.936v-77.207
					C1182.526,2266.266,1185.1,2236.667,1142.564,2236.667z"/>
				<rect x="877.23" y="2335.45" style="fill:#D1D3D4;" width="305.326" height="20.719"/>
				<rect x="877.23" y="2278.644" style="fill:#D4A954;" width="305.296" height="29.576"/>
			</g>
			<g>
				<polygon style="fill:#E6E7E8;" points="842.353,2356.169 723.511,2337.709 727.435,2317.546 845.314,2336.777 				"/>
				<path style="fill:#D1D3D4;" d="M823.572,2353.252c-33.494-5.203-100.061-15.543-100.061-15.543l3.924-20.164
					c0,0,1.848,0.302,5.082,0.83c0,0-5.023,12.647,15.066,18.91C767.672,2343.548,823.572,2353.252,823.572,2353.252z"/>
			</g>
			<g>
				<polygon style="fill:#E6E7E8;" points="828.652,2354.508 708.396,2356.169 708.892,2335.633 828.328,2334.893 				"/>
				<path style="fill:#D1D3D4;" d="M809.647,2354.77c-33.892,0.469-101.252,1.399-101.252,1.399l0.497-20.536
					c0,0,1.873-0.011,5.15-0.031c0,0-2.838,13.309,18.016,16.126C752.911,2354.545,809.647,2354.77,809.647,2354.77z"/>
			</g>
			<g>
				<rect x="1249.454" y="2243.998" style="fill:#D1D3D4;" width="163.521" height="112.171"/>
				<polygon style="fill:#E6E7E8;" points="1304.898,2236.667 1363.693,2236.667 1413.3,2243.998 1249.779,2243.998 				"/>
			</g>
		</g>
	</g>
	<g id="teacher">
		<g>
			<path style="fill:#FFC4B3;" d="M2865.975,1928.964c-49.104,79.18-146.711,229.708-182.512,316.046
				c-20.388,49.169,23.361,86.889,63.147,98.957s80.842-60.209,84.246-74.445c51.233-83.435,106.997-117.547,137.278-211.083
				c18.21-56.249,28.038-179.754-0.506-190.972C2939.084,1856.249,2884.829,1898.564,2865.975,1928.964z"/>
			<g>
				<path style="fill:#CF9F70;" d="M3020.892,1880.891c21.463,72.833-62.575,256.695-62.575,256.695l-111.383,159.226
					c-58.7-7.801-164.772-115.697-164.772-115.697s103.258-166.848,147.04-222.54c43.558-55.406,93.044-123.255,156.734-116.274
					C2993.875,1843.173,3017.636,1869.843,3020.892,1880.891z"/>
			</g>
		</g>
		<g>
			<path style="fill:#FFC4B3;" d="M3646.209,1927.05c49.104,79.18,168.483,244.057,215.79,324.667
				c52.14,88.847-9.101,135.231-67.427,123.543c-40.765-8.169-109.945-87.931-120.131-103.822
				c-10.186-15.891-100.11-121.376-130.392-214.913c-18.21-56.249-28.038-179.754,0.506-190.972
				C3573.1,1854.334,3627.356,1896.649,3646.209,1927.05z"/>
			<g>
				<path style="fill:#CF9F70;" d="M3491.292,1878.976c-21.463,72.834,62.575,256.696,62.575,256.696l91.49,129.011
					c54.863-10.293,178.544-104.629,178.544-104.629s-97.136-147.702-140.918-203.393
					c-43.558-55.406-93.044-123.255-156.734-116.274C3518.31,1841.258,3494.548,1867.929,3491.292,1878.976z"/>
			</g>
		</g>
		<g>
			<path style="fill:#523127;" d="M2719.274,1393.564c-15.194,51.107-13.64,107.474,7.236,157.718
				c39.128,94.17,142.104,160.372,245.717,159.887c47.699-0.223,96.468-14.366,129.823-46.599
				c28.424-27.469,82.028-124.027,50.488-241.045c-13.953-51.766-50.712-96.163-93.452-130.539
				c-37.309-30.008-82.037-53.603-129.803-57.082c-48.36-3.523-96.266,14.216-133.476,43.285
				C2758.642,1308.223,2732.557,1348.883,2719.274,1393.564z"/>
			<path style="fill:#523127;" d="M3059.805,1302.879c-78.633-154.854-327.344-110.291-354.114,50.882
				C2690.467,1158.776,3025.508,1120.231,3059.805,1302.879z"/>
			<path style="fill:#523127;" d="M3137.829,1504.343c41.688,51.761,35.339,129.64-7.179,179.696
				c-92.612,105.693-259.003,69.571-337.019-31.318C2998.563,1811.886,3205.656,1667.65,3137.829,1504.343z"/>
			<path style="fill:#523127;" d="M3149.317,1590.275c-97.033,221.114-441.707,164.78-444.696-71.966
				C2755.962,1745.019,3035.889,1757.522,3149.317,1590.275z"/>
			<path style="fill:#523127;" d="M3069.9,1314.354c-130.721-181.438-359.439-41.391-371.559,135.153
				C2673.905,1197.049,3001.859,1124.09,3069.9,1314.354z"/>
			<path style="fill:#452921;" d="M3048.327,1305.483c-32.102-18.101-68.863-24.071-103.178-19.449
				c-34.433,4.409-65.831,20.515-90.511,43.414c-6.167,5.741-11.927,11.893-17.302,18.366c-5.335,6.51-10.176,13.396-14.677,20.505
				c-4.405,7.172-8.268,14.638-11.829,22.311c-3.386,7.741-6.381,15.679-8.958,23.793c-10.145,32.578-12.603,67.742-9.567,103.207
				c-10.825-34.287-12.672-71.566-4.8-107.144c2.05-8.872,4.648-17.639,7.868-26.21c3.279-8.543,7.254-16.861,11.717-24.912
				c4.602-7.976,9.8-15.613,15.458-22.927c5.825-7.187,12.117-14.017,18.891-20.397c6.916-6.236,14.231-12.066,22.005-17.311
				c7.886-5.089,16.109-9.713,24.734-13.587c8.695-3.74,17.658-6.89,26.922-9.188c9.28-2.183,18.73-3.567,28.23-4.196
				c9.519-0.447,19.058-0.214,28.498,0.907c9.428,1.279,18.736,3.196,27.789,5.924c8.984,2.99,17.725,6.55,25.958,10.998
				C3033.742,1294.169,3041.417,1299.452,3048.327,1305.483z"/>
			<path style="fill:#452921;" d="M3125.387,1515.563c-11.852,29.623-32.434,55.963-57.831,76.793
				c-25.48,20.796-56.127,36.107-89.074,43.851c-32.941,7.77-67.793,7.853-100.945,0.839c-33.098-7.071-64.82-21.133-90.558-41.935
				c29.849,14.318,61.07,23.807,92.734,27.762c31.61,4.021,63.54,2.649,93.863-4.456c30.319-7.123,59.078-20.02,84.76-37.508
				C3084.106,1563.461,3106.607,1541.327,3125.387,1515.563z"/>
			<path style="fill:#452921;" d="M3105.575,1450.266c-2.954-0.454-5.831-0.981-8.751-1.195c-2.889-0.328-5.778-0.495-8.649-0.56
				c-5.749-0.08-11.425,0.098-17.068,0.678c-5.641,0.529-11.235,1.34-16.812,2.32c-5.56,1.107-11.098,2.22-16.578,3.444
				c-21.858,5.272-42.855,12.817-62.662,22.641c-19.718,9.973-38.325,21.956-55.501,35.936
				c-17.081,14.111-32.58,30.129-47.239,47.824c7.748-21.556,20.791-41.289,36.824-58.339c16.24-16.891,35.65-31.033,56.956-41.75
				c21.376-10.596,44.76-17.563,68.658-20.435c2.971-0.432,6.013-0.491,9.007-0.743c3.009-0.175,5.984-0.492,9.006-0.498
				c6.021-0.141,12.097,0.063,18.146,0.651C3082.97,1441.457,3095.132,1444.434,3105.575,1450.266z"/>
			<path style="fill:#6E4334;" d="M3108.664,1447.449c-16.547-17.15-34.326-32.053-53.715-44.244
				c-19.333-12.208-40.122-21.72-61.779-28.034c-21.662-6.297-44.253-9.441-67.028-9.516c-22.813-0.115-45.685,2.92-68.705,8.51
				c19.756-12.645,43.249-20.128,67.449-22.878c24.238-2.713,49.388-0.614,73.257,6.372c23.874,6.966,46.272,18.736,65.376,34.092
				C3082.569,1407.121,3098.543,1426.108,3108.664,1447.449z"/>
		</g>
		<g>
			<g>
				<rect x="3160.587" y="1611.983" style="fill:#FFC4B3;" width="200.844" height="233.086"/>
				<path style="fill:#C26E61;" d="M3160.587,1611.983v116.68c63.917,25.384,136.439,27.496,200.844,1.895v-118.574H3160.587z"/>
			</g>
			<path style="fill:#FFC4B3;" d="M3381.519,1786.775c0,40.184-54.592,241.928-121.147,241.928
				c-66.556,0-119.873-201.743-119.873-241.928C3140.499,1746.591,3381.519,1746.591,3381.519,1786.775z"/>
		</g>
		<g>
			<g>
				<path style="fill:#FFC4B3;" d="M3558.253,1592.027c0,0,61.052,92.995,126.172,28.645c65.12-64.349,11.4-136.507-53.738-126.692
					S3542.98,1573.339,3558.253,1592.027z"/>
				<path style="fill:#F7AB94;" d="M3653.092,1518.273c12.764,10.401,20.341,26.12,20.029,42.651
					c-0.324,17.135-9.909,33.4-24.123,42.727c-5.136,3.371-0.06,11.453,5.087,8.075c16.872-11.072,27.712-29.855,28.537-50.059
					c0.782-19.149-8.216-38.311-23.008-50.364C3654.868,1507.436,3648.325,1514.389,3653.092,1518.273L3653.092,1518.273z"/>
			</g>
			<g>
				<path style="fill:#FFC4B3;" d="M2960.819,1456.39c0,0-95.222,57.515-126.172-28.645s48.662-128.047,103.176-91.067
					C2992.337,1373.659,2982.665,1446.129,2960.819,1456.39z"/>
				<path style="fill:#F7AB94;" d="M2907.125,1348.915c-16.004,3.87-29.626,14.776-36.482,29.821
					c-7.107,15.595-5.484,34.404,3.308,48.955c3.177,5.258-4.891,10.356-8.075,5.087c-10.437-17.272-12.104-38.894-4.123-57.474
					c7.564-17.609,23.954-31.007,42.5-35.491C2910.204,1338.373,2913.102,1347.47,2907.125,1348.915L2907.125,1348.915z"/>
			</g>
			<g>
				<path style="fill:#FFC4B3;" d="M3206.312,1732.7c75.566,16.645,128.39,8.767,180.319-0.819
					c53.584-9.891,107.372-32.871,148.575-75.007c55.535-56.792,162.146-342.076,152.967-405.859
					c-10.127-70.369-34.179-127.484-92.125-168.912c-63.322-45.271-104.259-66.266-213.953-92.224
					c-109.694-25.959-155.701-25.539-232.595-13.45c-70.367,11.063-117.447,50.932-157.959,109.285
					c-36.719,52.891-69.451,356.134-45.26,431.792c17.948,56.134,55.732,100.784,99.199,133.642
					C3087.604,1682.993,3131.295,1713.709,3206.312,1732.7z"/>
				<path style="fill:#F7AB94;" d="M3036.122,1602.215c-138.192-188.818-12.911-470.269,133.15-628.709
					c-6.395,0.878-12.958,1.852-19.772,2.923c-70.367,11.063-117.447,50.932-157.959,109.285
					c-36.719,52.891-69.451,356.134-45.26,431.792c17.948,56.134,55.732,100.784,99.199,133.642
					c42.125,31.843,85.815,62.56,160.832,81.551c75.566,16.645,128.39,8.767,180.319-0.819
					c53.584-9.891,107.372-32.871,148.575-75.007c0.884-0.903,1.78-1.867,2.689-2.884c-11.218,5.999-22.737,11.656-34.659,16.843
					C3349.8,1735.163,3132.289,1740.212,3036.122,1602.215z"/>
			</g>
			<path style="fill:#C26E61;" d="M3292.631,1455.048c-0.226-1.84-1.012-6.371-3.522-7.364s-6.409,7.903-9.417,12.021
				c-3.008,4.118-7.846,7.893-13.6,7.165c-7.155-0.905-11.63-8.056-18.393-10.633c-0.46-0.175-0.928-0.325-1.402-0.45
				c-6.78,1.104-7.002,6.916-4.309,10.881c1.781,2.623,4.618,4.579,7.501,6.282c6.293,3.716,13.373,6.625,20.677,7.129
				c7.304,0.503,14.84-1.698,18.977-6.705C3293.291,1468.357,3293.446,1461.67,3292.631,1455.048z"/>
			<g>
				
					<ellipse transform="matrix(0.2462 -0.9692 0.9692 0.2462 1091.6351 4517.7373)" style="fill:#D26C85;" cx="3450.302" cy="1557.049" rx="35.823" ry="51.734"/>
				
					<ellipse transform="matrix(0.2462 -0.9692 0.9692 0.2462 890.3806 4087.7419)" style="fill:#D26C85;" cx="3073.224" cy="1471.44" rx="35.823" ry="51.734"/>
				<g>
					<path style="fill:#FFFFFF;" d="M3101.344,1428.679c37.143,7.724,72.507-17.434,80.51-57.274
						c8.003-39.84-14.822-77.099-51.965-84.823s-72.508,17.433-80.512,57.274
						C3041.375,1383.696,3064.202,1420.955,3101.344,1428.679z"/>
					
						<ellipse transform="matrix(0.1691 -0.9856 0.9856 0.1691 1250.8119 4198.8862)" style="fill:#271713;" cx="3115.617" cy="1357.631" rx="63.162" ry="56.739"/>
					<g>
						<path style="fill:#523127;" d="M3076.965,1368.528c4.556-22.679,28.521-36.849,53.529-31.648
							c22.13,4.602,37.647,22.832,37.77,42.683c-7.876,21.784-25.515,37.212-46.108,40.459c-2.692-0.119-5.419-0.443-8.16-1.013
							C3088.988,1413.809,3072.409,1391.208,3076.965,1368.528z"/>
					</g>
					
						<ellipse transform="matrix(0.2214 -0.9752 0.9752 0.2214 1131.1239 4107.0952)" style="fill:#FFFEFD;" cx="3137.595" cy="1345.191" rx="16.303" ry="19.1"/>
				</g>
				<g>
					<path style="fill:#FFFFFF;" d="M3449.601,1507.745c37.143,7.724,72.507-17.434,80.51-57.274
						c8.003-39.84-14.822-77.099-51.965-84.823c-37.143-7.724-72.508,17.433-80.512,57.274
						C3389.631,1462.762,3412.458,1500.02,3449.601,1507.745z"/>
					
						<ellipse transform="matrix(0.1691 -0.9856 0.9856 0.1691 1462.2655 4607.8286)" style="fill:#271713;" cx="3463.873" cy="1436.696" rx="63.162" ry="56.739"/>
					<g>
						<path style="fill:#523127;" d="M3425.221,1447.594c4.556-22.679,28.521-36.849,53.529-31.648
							c22.13,4.602,37.647,22.831,37.77,42.683c-7.876,21.784-25.515,37.212-46.108,40.459c-2.692-0.119-5.419-0.443-8.16-1.013
							C3437.244,1492.875,3420.665,1470.274,3425.221,1447.594z"/>
					</g>
					
						<ellipse transform="matrix(0.2214 -0.9752 0.9752 0.2214 1325.1727 4508.269)" style="fill:#FFFEFD;" cx="3485.852" cy="1424.256" rx="16.303" ry="19.1"/>
				</g>
				<path style="fill:#523127;" d="M3072.501,1287.231c-2.387-0.542-4.541-2.059-5.823-4.366c-2.389-4.305-0.837-9.732,3.466-12.121
					c35.046-19.459,79.966-18.815,114.436,1.646c4.234,2.512,5.629,7.981,3.116,12.215c-2.513,4.232-7.985,5.631-12.215,3.116
					c-29.122-17.283-67.073-17.828-96.681-1.39C3076.804,1287.439,3074.566,1287.7,3072.501,1287.231z"/>
				<path style="fill:#523127;" d="M3536.526,1392.58c2.387,0.542,4.984,0.104,7.137-1.424c4.014-2.851,4.957-8.416,2.108-12.43
					c-23.207-32.684-64.001-51.5-103.928-47.929c-4.903,0.438-8.524,4.768-8.085,9.672c0.439,4.902,4.771,8.527,9.672,8.085
					c33.73-3.013,68.196,12.883,87.803,40.494C3532.555,1390.909,3534.462,1392.111,3536.526,1392.58z"/>
			</g>
			<g>
				<g>
					<path style="fill:#B85358;" d="M3183.524,1485.809l152.31,34.579c16.722,3.796,26.351,18.1,19.906,29.37
						c-22.252,38.912-66.823,85.167-123.146,72.38c-56.323-12.787-76.439-73.729-79.707-118.434
						C3151.941,1490.757,3166.802,1482.013,3183.524,1485.809z"/>
					<path style="fill:#FFFFFF;" d="M3183.524,1485.809c0,0,0.658,41.926,67.135,57.019s78.739-23.9,78.739-23.9L3183.524,1485.809z
						"/>
				</g>
				
					<ellipse transform="matrix(0.2214 -0.9752 0.9752 0.2214 971.5889 4399.9302)" style="fill:#DCA1A1;" cx="3241.21" cy="1591.517" rx="31.77" ry="55.428"/>
			</g>
			<g>
				<path style="fill:#523127;" d="M3592.984,1004.564c-130.504-135.875-361.228-164.729-520.205-65.057
					c-158.977,99.672-208.213,297.726-136.345,470.363c0,0,41.696-166.574,65.064-229.461
					c18.902-50.868,82.949-90.917,82.949-90.917c-14.332,58.308-32.862,103.717-67.937,152.675
					c134.671,24.744,262.294,59.612,396.966,84.356c20.921-42.254,43.884-100.122,50.661-98.528
					c13.613,3.201-5.051,63.328-25.101,103.141c36.789,6.195,76.207,9.327,106.089-11.187
					c42.715-29.323,43.661-90.074,40.285-141.375c0,0,24.439,45.982,31.614,114.252c7.299,69.447-5.728,229.095-5.728,229.095
					C3722.139,1372.133,3723.488,1140.439,3592.984,1004.564z"/>
				<path style="fill:#452921;" d="M3576.17,1152c-1.477,39.175-1.145,79.859-10.693,118.268
					c-4.469,19.688-37.502,37.542-62.275,25.815c-5.334-2.039-9.165-7.049-9.846-11.344c-8.168-33.322,1.643-103.66-12.659-104.729
					c-8.948,2.937-14.064,10.885-19.002,18.044c-29.342,38.055-44.863,99.123-100.379,95.628
					c-83.186-5.636-262.633-68.735-273.624-78.683c-6.981-5.725-14.213-13.992-11.889-24.229
					c11.766-44.53,23.155-95.324,31.771-140.569c-13.912,17.965-26.544,36.894-46.675,56.479
					c13.403-10.841,23.548-17.188,23.548-17.188c-14.332,58.308-32.862,103.717-67.937,152.675
					c134.671,24.745,262.295,59.612,396.966,84.357c20.921-42.253,43.884-100.122,50.661-98.528
					c13.613,3.201-5.051,63.328-25.101,103.141c36.789,6.195,76.207,9.327,106.089-11.187
					c42.715-29.323,43.661-90.074,40.285-141.375c0,0,24.439,45.982,31.614,114.252c7.299,69.447-5.728,229.095-5.728,229.095
					c16.961-22.92,37.791-196.454,27.377-257.187C3632.293,1223.537,3603.366,1172.516,3576.17,1152z"/>
				<path style="fill:#452921;" d="M3218.232,1226.376c13.036-13.338,24.868-27.805,35.441-43.167
					c10.498-15.253,19.684-31.408,27.416-48.233c4.425-9.629,8.356-19.481,11.835-29.491c0.597-1.718-0.904-3.654-2.535-4.025
					c-1.937-0.44-3.426,0.812-4.025,2.535c-5.953,17.126-13.434,33.721-22.229,49.574c-8.803,15.868-18.935,30.987-30.315,45.123
					c-6.457,8.021-13.304,15.723-20.501,23.087C3210.286,1224.884,3215.208,1229.47,3218.232,1226.376L3218.232,1226.376z"/>
				<path style="fill:#452921;" d="M3385.242,1275.507c10.275-24.301,17.17-49.971,20.413-76.156
					c3.232-26.1,3.034-52.602-0.838-78.622c-2.187-14.694-5.474-29.213-9.919-43.389c-1.294-4.129-7.715-2.118-6.416,2.025
					c7.696,24.546,11.894,50.083,12.613,75.793c0.718,25.695-2.046,51.433-8.233,76.384c-3.453,13.923-7.962,27.572-13.549,40.785
					c-0.707,1.671-0.33,3.642,1.375,4.555C3382.175,1277.678,3384.531,1277.189,3385.242,1275.507L3385.242,1275.507z"/>
				<path style="fill:#341F19;" d="M3471.388,1211.247c-7.666,3.339-11.973,12.227-15.898,19.384
					c-17.038,29.472-26.423,60.682-46.493,88.316c-125.235-30.732-250.059-57.543-376.038-84.995
					c45.276-86.118,60.92-134.93,83.823-207.833c-10.926,29.954-65.197,167.089-100.272,216.047
					c134.671,24.744,262.294,59.612,396.966,84.356c20.921-42.254,43.884-100.122,50.661-98.528
					c13.613,3.201-5.051,63.328-25.101,103.141c33.781,5.689,69.772,8.779,98.568-6.633c-26.07,7.072-54.629,4.342-81.198-1.691
					C3470.909,1289.316,3488.987,1245.134,3471.388,1211.247z"/>
				<path style="fill:#452921;" d="M3571.283,1117.052c-1.269,9.111-0.848,17.822-0.427,26.533
					c8.155,61.822,6.243,129.248-31.496,179.954c1.956-1.11,3.882-2.297,5.765-3.589
					C3587.84,1290.626,3578.616,1138.721,3571.283,1117.052z"/>
				<path style="fill:#633B2F;" d="M3575.549,1045.145l-12.378-11.966c-4.098-3.961-8.314-9.346-13.479-11.907
					c-5.523-2.738-9.734-1.623-13.086,1.298c-0.942-1.529-1.926-3.03-2.985-4.471c-5.471-7.448-14.089-18.472-24.648-14.98
					c-1.018,0.337-1.903,0.795-2.695,1.335c-1.232-6.294-2.772-12.544-4.655-18.728c-2.476-8.133-16.132-10.176-19.406-1.425
					c-3.381,9.037-6.233,18.16-8.569,27.387c-0.669,0.439-1.295,0.961-1.872,1.552c-2.17-2.758-4.757-5.175-7.886-7.106
					c-16.443-10.147-39.58,5.735-32.689,16.825c2.74,4.409,25.186,0.619,29.437,14.983c1.061,3.584,3.84,5.791,6.923,6.66
					c-0.525,4.413-0.946,8.853-1.252,13.324c-0.353,5.158,4.994,9.584,9.69,9.88c5.156,0.325,10.047-2.981,11.132-8.22
					c0.521-2.514,0.955-5.043,1.345-7.579c-0.287,4.188-0.725,8.37-1.338,12.538c-1.972,13.398,17.143,17.556,20.604,4.382
					c2.329-8.867,4.658-17.734,6.987-26.601c0.934-3.555,1.787-7.17,2.668-10.781c0.535,0.84,1.023,1.634,1.452,2.325
					c2.992,4.832,4.895,10.067,6.256,15.57c2.212,8.946,15.679,9.328,19.406,1.425c0.697-1.479,1.395-2.958,2.092-4.437
					c1.123,1.085,2.245,2.171,3.368,3.256c3.883,3.754,7.766,7.508,11.65,11.262
					C3571.37,1070.372,3585.294,1054.566,3575.549,1045.145z"/>
				<path style="fill:#633B2F;" d="M3361.527,967.109c-4.815-0.626-9.631-1.252-14.447-1.878c-4.406-0.573-9.233-0.705-13.589-1.685
					c-0.011-0.041-0.02-0.072-0.031-0.115c-0.321-1.223-1.108-2.434-1.759-3.516c-2.412-4.011-5.937-7.037-10.309-8.722
					c-6.853-2.641-14.669-1.567-21.571,0.295c-2.684,0.724-5.442,1.654-8.236,1.755c-0.463,0.017-2.4-0.128-2.573-0.133
					c-0.075-0.003-0.133-0.007-0.2-0.01c-3.01-5.997-11.467-7.812-16.464-3.098l-14.574,13.749
					c0.511-8.803-2.004-16.885-9.561-22.098c-2.501-1.725-6.056-2.083-9.13-1.151c1.031-3.447,2.062-6.894,3.092-10.341
					c3.299-11.035-12.649-19.826-18.82-9.066c-2.061,3.593-4.121,7.187-6.182,10.78c-4.927-2.002-9.446-0.102-12.812,3.89
					c-1.778,2.107-3.517,4.243-5.24,6.391c-2.204-2.091-5.397-3.216-9.168-2.821c-5.24,0.549-9.603,3.852-12.555,8.066
					c-2.268,3.238-3.469,7.683-5.388,10.544c-5.426,8.087-18.603,0.638-24.923-2.319c-5.156-2.412-11.668,1.721-13.313,6.674
					c-1.967,5.921,1.505,10.895,6.674,13.313c10.853,5.078,22.908,9.023,34.47,5.255c0.301,3.578,2.111,6.791,5.766,8.483
					c1.344,0.622,2.792,0.948,4.24,1.001c-0.395,7.547,8.491,13.007,14.96,10.264c-0.494,3.887-0.406,7.802,0.828,11.644
					c1.322,4.113,3.807,7.394,8.334,8.204c3.848,0.688,8.854-0.761,10.824-4.505c5.319-10.112,10.638-20.223,15.958-30.335
					c0.466,2.362,1.214,4.681,2.347,6.931c3.019,5.992,11.459,7.828,16.467,3.104c8.373-7.898,16.745-15.796,25.117-23.694
					c3.587,1.661,7.665,2.403,11.854,2.259c3.731-0.128,7.27-0.688,10.86-1.653c2.578-0.693,8.218-3.176,10.852-1.84
					c0.727,0.369,1.676,3.083,2.478,4.448c2.499,4.253,6.24,7.158,11.058,8.412c10.639,2.769,22.415,3.124,33.312,4.541
					C3373.651,989.881,3374.91,968.849,3361.527,967.109z"/>
			</g>
		</g>
		<g>
			<path style="fill:#CF9F70;" d="M3556.013,2999.964c1.841-121.604,1.245-234.17-4.76-287.248
				c-8.387-74.138-78.828-143.447-78.828-143.447l-419.339,3.938c-79.869,65.861-72.761,119.656-77.914,165.917
				c-6.008,53.932-9.868,152.633-11.733,260.839H3556.013z"/>
			<path style="fill:#BA8959;" d="M3472.425,2569.27l-419.339,3.938c-57.317,47.264-69.84,88.313-74.247,124.825
				c4.112-7.893,26.333-31.339,34.852-31.095c230.092,6.611,322.502,3.966,478.524,1.322c30.883,40.99,55.339,81.97,64.272,156.253
				c-0.72-47.228-2.355-86.352-5.234-111.797C3542.866,2638.579,3472.425,2569.27,3472.425,2569.27z"/>
		</g>
		<g>
			<path style="fill:#AD7C50;" d="M3526.056,2622.294c-177.02,26.392-352.678,27.015-529.698,0.623l6.737-68.144
				c169.493,25.27,515.969,0,515.969,0L3526.056,2622.294z"/>
			<g>
				<g>
					<rect x="3192.103" y="2561.13" style="fill:#FBBE30;" width="131.788" height="82.368"/>
				</g>
			</g>
		</g>
		<rect x="3031.509" y="2093.563" style="fill:#1A1A1A;" width="139.652" height="29.821"/>
		<g>
			<g>
				<path style="fill:#CF9F70;" d="M3549.54,2534.588c8.093,9.306-3.871,19.437-33.469,24.279
					c-164.807,26.967-358.274,17.992-503.763,6.725c-27.031-2.094-54.521-12.38-47.044-22.265
					c17.005-22.48,15.857-276.839,23.165-366.107c-14.344-113.385-52.236-323.613-52.236-323.613s136.914-52.744,216.109-77.254
					l109.565,236.813l125.41-241.565c29.363,15.772,134.919,66.364,188.699,80.622c2.321,112.578-41.183,277.838-41.598,307.316
					C3533.767,2202.88,3527.672,2509.445,3549.54,2534.588z"/>
			</g>
			<g>
				<path style="fill:#BA8959;" d="M3534.378,2159.538c0.314-22.311,25.309-122.407,36.439-218.573
					c-17.192,52.788-36.601,126.495-44.761,183.651c-20.96,146.821,11.196,258.574-13.685,399.562
					c-2.678,15.401-9.927,27.864-20.156,38.29c8.006-1.129,15.973-2.312,23.856-3.602c29.597-4.843,41.562-14.974,33.469-24.279
					C3527.673,2509.445,3533.767,2202.88,3534.378,2159.538z"/>
				<path style="fill:#BA8959;" d="M3009.238,2477.182c-27.645-132.695,2.765-259.86-19.351-395.32
					c-5.812-42.625-21.122-79.824-34.525-118.248c11.601,68.379,25.56,154.254,33.068,213.605
					c-7.308,89.268-6.16,343.626-23.165,366.107c-7.478,9.885,20.013,20.171,47.044,22.265
					c72.852,5.642,157.735,10.708,245.024,10.976c-24.521-1.855-49.154-4.345-73.933-8.157
					C3114.288,2557.352,3023.06,2551.823,3009.238,2477.182z"/>
			</g>
			<g>
				<g>
					<rect x="3345.924" y="2091.732" style="fill:#286E2A;" width="67.979" height="16.442"/>
					<rect x="3413.904" y="2091.732" style="fill:#FFC197;" width="67.979" height="16.442"/>
					<rect x="3413.904" y="2091.732" style="fill:#46C2B0;" width="13.25" height="16.442"/>
					<rect x="3437.099" y="2091.648" style="fill:#F47B50;" width="13.25" height="16.442"/>
					<rect x="3461.645" y="2091.648" style="fill:#CCCC89;" width="13.25" height="16.442"/>
					<rect x="3345.924" y="2108.174" style="fill:#F47B50;" width="67.979" height="16.442"/>
					<rect x="3413.904" y="2108.174" style="fill:#B2D6C5;" width="26.5" height="16.442"/>
					<rect x="3440.404" y="2108.174" style="fill:#CBCBCB;" width="26.5" height="16.442"/>
					<rect x="3466.905" y="2108.174" style="fill:#91BB7D;" width="14.979" height="16.442"/>
				</g>
			</g>
			<g>
				<g>
					<g>
						<path style="fill:#E4D5CD;" d="M3256.655,2112.37c-5.312,0-9.634-4.322-9.634-9.634c0-5.312,4.322-9.633,9.634-9.633
							c5.313,0,9.634,4.322,9.634,9.633C3266.289,2108.049,3261.968,2112.37,3256.655,2112.37z"/>
						<path style="fill:#C29C7A;" d="M3263.116,2102.737c0,3.568-2.893,6.461-6.461,6.461c-3.568,0-6.461-2.893-6.461-6.461
							c0-3.568,2.893-6.461,6.461-6.461C3260.223,2096.276,3263.116,2099.168,3263.116,2102.737z"/>
					</g>
					<g>
						<path style="fill:#E4D5CD;" d="M3256.655,2241.521c-5.312,0-9.634-4.322-9.634-9.634c0-5.312,4.322-9.634,9.634-9.634
							c5.313,0,9.634,4.322,9.634,9.634C3266.289,2237.2,3261.967,2241.521,3256.655,2241.521z"/>
						<path style="fill:#C29C7A;" d="M3263.115,2231.888c0,3.568-2.893,6.461-6.461,6.461c-3.568,0-6.461-2.893-6.461-6.461
							c0-3.568,2.893-6.461,6.461-6.461C3260.223,2225.427,3263.115,2228.32,3263.115,2231.888z"/>
					</g>
					<g>
						<path style="fill:#E4D5CD;" d="M3256.654,2370.673c-5.312,0-9.633-4.322-9.633-9.634c0-5.312,4.322-9.633,9.633-9.633
							c5.313,0,9.634,4.322,9.634,9.633C3266.289,2366.351,3261.967,2370.673,3256.654,2370.673z"/>
						<path style="fill:#C29C7A;" d="M3263.115,2361.039c0,3.568-2.893,6.461-6.461,6.461c-3.568,0-6.461-2.893-6.461-6.461
							c0-3.568,2.893-6.461,6.461-6.461C3260.223,2354.578,3263.115,2357.471,3263.115,2361.039z"/>
					</g>
					<g>
						<path style="fill:#E4D5CD;" d="M3256.654,2499.824c-5.312,0-9.634-4.322-9.634-9.634c0-5.312,4.322-9.634,9.634-9.634
							c5.313,0,9.634,4.322,9.634,9.634C3266.288,2495.502,3261.967,2499.824,3256.654,2499.824z"/>
						<path style="fill:#C29C7A;" d="M3263.115,2490.19c0,3.568-2.893,6.461-6.461,6.461s-6.461-2.893-6.461-6.461
							c0-3.568,2.893-6.461,6.461-6.461S3263.115,2486.622,3263.115,2490.19z"/>
					</g>
				</g>
				<rect x="3274.286" y="2003.86" style="fill:#AD7C50;" width="4.391" height="565.41"/>
				<rect x="3238.014" y="2003.86" style="fill:#AD7C50;" width="4.391" height="565.41"/>
			</g>
			<g>
				<g>
					<path style="fill:#AD7C50;" d="M3453.489,2333.567h-65.683c-24.807,0-44.992-20.185-44.992-44.994v-95.961
						c-5.116-5.667-8.464-13.664-9.451-22.599c-1.084-9.816,0.534-20.03,1.836-28.238l0.216-1.349h170.601l0.209,1.355
						c0.119,0.767,2.873,18.865,1.836,28.233c-0.828,7.496-3.267,14.29-7.049,19.649c-0.765,1.084-1.615,2.135-2.533,3.131v95.779
						C3498.48,2313.382,3478.296,2333.567,3453.489,2333.567z M3338.148,2143.624c-1.505,9.602-2.523,17.727-1.605,26.038
						c0.937,8.501,4.147,16.04,9.035,21.229l0.434,0.462v97.22c0,23.047,18.748,41.795,41.794,41.795h65.683
						c23.046,0,41.794-18.748,41.794-41.795v-97.053l0.444-0.464c0.978-1.021,1.88-2.111,2.677-3.239
						c3.47-4.917,5.712-11.195,6.48-18.155c0.831-7.521-1-21.623-1.621-26.039H3338.148z"/>
					<g>
						<path style="fill:#E7D8CB;" d="M3420.647,2200.304c-5.588,0-10.135-4.546-10.135-10.135c0-5.588,4.546-10.135,10.135-10.135
							c5.589,0,10.135,4.546,10.135,10.135C3430.782,2195.758,3426.236,2200.304,3420.647,2200.304z"/>
						<path style="fill:#C29C7A;" d="M3427.444,2190.169c0,3.754-3.043,6.797-6.797,6.797c-3.754,0-6.797-3.043-6.797-6.797
							c0-3.754,3.043-6.797,6.797-6.797C3424.401,2183.373,3427.444,2186.416,3427.444,2190.169z"/>
					</g>
				</g>
				<path style="fill:#BA8959;" d="M3420.643,2212.561l-0.4-0.106l-69.393-18.217c-0.856-0.223-1.365-1.098-1.14-1.952
					c0.222-0.856,1.093-1.369,1.952-1.14l68.993,18.111l66.382-16.876c0.862-0.228,1.724,0.3,1.943,1.156
					c0.219,0.856-0.3,1.726-1.156,1.943L3420.643,2212.561z"/>
				<g>
					<rect x="3436.748" y="2210.909" style="fill:#BA8959;" width="2.402" height="121.058"/>
					<rect x="3401.466" y="2210.909" style="fill:#BA8959;" width="2.402" height="121.058"/>
				</g>
			</g>
			<g>
				<g>
					<path style="fill:#AD7C50;" d="M3134.172,2333.567h-65.683c-24.807,0-44.992-20.185-44.992-44.994v-95.961
						c-5.116-5.667-8.464-13.664-9.451-22.599c-1.084-9.816,0.534-20.03,1.836-28.238l0.216-1.349H3186.7l0.209,1.355
						c0.119,0.767,2.873,18.865,1.836,28.233c-0.828,7.496-3.267,14.29-7.049,19.649c-0.765,1.084-1.615,2.135-2.533,3.131v95.779
						C3179.164,2313.382,3158.979,2333.567,3134.172,2333.567z M3018.832,2143.624c-1.505,9.602-2.523,17.727-1.605,26.038
						c0.937,8.501,4.147,16.04,9.035,21.229l0.434,0.462v97.22c0,23.047,18.748,41.795,41.794,41.795h65.683
						c23.046,0,41.794-18.748,41.794-41.795v-97.053l0.444-0.464c0.978-1.021,1.88-2.111,2.677-3.239
						c3.47-4.917,5.712-11.195,6.48-18.155c0.831-7.521-0.999-21.623-1.621-26.039H3018.832z"/>
					<g>
						<path style="fill:#E7D8CB;" d="M3101.331,2200.304c-5.588,0-10.135-4.546-10.135-10.135c0-5.588,4.547-10.135,10.135-10.135
							c5.589,0,10.135,4.546,10.135,10.135C3111.466,2195.758,3106.92,2200.304,3101.331,2200.304z"/>
						<path style="fill:#C29C7A;" d="M3108.128,2190.169c0,3.754-3.043,6.797-6.797,6.797s-6.797-3.043-6.797-6.797
							c0-3.754,3.043-6.797,6.797-6.797S3108.128,2186.416,3108.128,2190.169z"/>
					</g>
				</g>
				<path style="fill:#BA8959;" d="M3101.326,2212.561l-0.4-0.106l-69.393-18.217c-0.856-0.223-1.365-1.098-1.14-1.952
					c0.222-0.856,1.093-1.369,1.952-1.14l68.993,18.111l66.382-16.876c0.862-0.228,1.724,0.3,1.943,1.156
					c0.219,0.856-0.3,1.726-1.156,1.943L3101.326,2212.561z"/>
				<g>
					<rect x="3117.432" y="2210.909" style="fill:#BA8959;" width="2.402" height="121.058"/>
					<rect x="3082.15" y="2210.909" style="fill:#BA8959;" width="2.402" height="121.058"/>
				</g>
			</g>
			<path style="fill:#AD7C50;" d="M3261.867,2013.165l100.807-96.168l-21.188-26.419c0,0,10.044,0,28.102,4.54
				c18.058,4.54,41.516,49.186,41.516,49.186s2.27-115.776,0-143.774c-2.27-27.998-49.672-53.159-49.672-53.159s0,28.566,0,34.998
				S3261.867,2013.165,3261.867,2013.165z"/>
			<path style="fill:#AD7C50;" d="M3261.834,2013.165l-100.806-96.168l21.188-26.419c0,0-10.044,0-28.101,4.54
				c-18.058,4.54-41.516,49.186-41.516,49.186s-2.27-115.776,0-143.774c2.27-27.998,47.989-53.159,47.989-53.159s0,28.566,0,34.998
				S3261.834,2013.165,3261.834,2013.165z"/>
		</g>
		<g>
			<g>
				<path style="fill:#FBBE30;" d="M3391.899,1878.075c-1.188,4.619-5.894,7.4-10.513,6.213c-4.619-1.188-7.4-5.894-6.213-10.513
					s5.894-7.4,10.513-6.213C3390.305,1868.75,3393.086,1873.457,3391.899,1878.075z"/>
				<path style="fill:#FBBE30;" d="M3377.313,1871.667c0.631-2.755,1.261-5.51,1.892-8.266c0.093-0.406,0.193-0.828,0.452-1.154
					c0.338-0.426,0.902-0.621,1.445-0.636c0.47-0.013,0.934,0.092,1.39,0.213c0.66-2.568,1.32-5.136,1.981-7.705
					c1.706-0.582,3.413-1.163,5.119-1.745c1.214,1.333,2.429,2.665,3.643,3.998c-0.66,2.568-1.321,5.136-1.981,7.705
					c0.458,0.115,0.914,0.246,1.32,0.484c0.469,0.275,0.868,0.718,0.959,1.254c0.07,0.411-0.046,0.828-0.161,1.229
					c-0.777,2.718-1.553,5.435-2.33,8.153L3377.313,1871.667z"/>
			</g>
			<g>
				<path style="fill:#FBBE30;" d="M3130.515,1878.075c1.188,4.619,5.894,7.4,10.513,6.213c4.619-1.188,7.4-5.894,6.213-10.513
					s-5.894-7.4-10.513-6.213C3132.109,1868.75,3129.327,1873.457,3130.515,1878.075z"/>
				<path style="fill:#FBBE30;" d="M3145.101,1871.667c-0.63-2.755-1.261-5.51-1.891-8.266c-0.093-0.406-0.193-0.828-0.452-1.154
					c-0.338-0.426-0.902-0.621-1.445-0.636c-0.47-0.013-0.934,0.092-1.39,0.213c-0.66-2.568-1.32-5.136-1.981-7.705
					c-1.707-0.582-3.413-1.163-5.119-1.745c-1.214,1.333-2.429,2.665-3.643,3.998c0.66,2.568,1.321,5.136,1.981,7.705
					c-0.458,0.115-0.915,0.246-1.32,0.484c-0.469,0.275-0.868,0.718-0.959,1.254c-0.07,0.411,0.046,0.828,0.161,1.229
					c0.777,2.718,1.553,5.435,2.33,8.153L3145.101,1871.667z"/>
			</g>
		</g>
		<g>
			<g>
				<path style="fill:#BA8C52;" d="M3589.854,1839.893l-104.625-52.312c-15.937-7.969-35.254-0.197-41.233,16.588l0,0
					c-5.071,14.237,1.365,30.011,14.949,36.636l108.787,53.057L3589.854,1839.893z"/>
				<polygon style="fill:#FBBE30;" points="3567.737,1828.834 3579.611,1834.771 3555.556,1887.923 3541.537,1881.087 				"/>
				<polygon style="fill:#FBBE30;" points="3539.268,1814.6 3553.424,1821.678 3527.17,1874.04 3512.793,1867.067 				"/>
				<polygon style="fill:#FBBE30;" points="3508.19,1799.061 3521.678,1805.805 3495.256,1858.514 3482.038,1852.067 				"/>
				<path style="fill:#FBBE30;" d="M3434.096,1791.038c-8.767,14.989-3.007,34.666,12.865,43.95
					c15.873,9.284,35.847,4.66,44.615-10.329c8.767-14.989,3.007-34.666-12.865-43.95
					C3462.838,1771.424,3442.863,1776.049,3434.096,1791.038z M3450.167,1800.438c3.859-6.597,12.682-8.64,19.667-4.554
					c6.986,4.086,9.531,12.778,5.672,19.375c-3.858,6.596-12.681,8.639-19.667,4.552
					C3448.853,1815.726,3446.308,1807.034,3450.167,1800.438z"/>
			</g>
			<g>
				<path style="fill:#BA8C52;" d="M2922.405,1839.893l104.624-52.312c15.937-7.969,35.255-0.197,41.233,16.588v0
					c5.071,14.237-1.365,30.011-14.949,36.636l-108.786,53.057L2922.405,1839.893z"/>
				<polygon style="fill:#FBBE30;" points="2944.521,1828.834 2932.648,1834.771 2956.703,1887.923 2970.721,1881.087 				"/>
				<polygon style="fill:#FBBE30;" points="2972.99,1814.6 2958.834,1821.678 2985.089,1874.04 2999.466,1867.067 				"/>
				<polygon style="fill:#FBBE30;" points="3004.069,1799.061 2990.581,1805.805 3017.003,1858.514 3030.221,1852.067 				"/>
				<path style="fill:#FBBE30;" d="M3033.548,1780.709c-15.873,9.284-21.633,28.961-12.865,43.95
					c8.767,14.989,28.742,19.613,44.614,10.329c15.873-9.284,21.633-28.962,12.865-43.95S3049.421,1771.424,3033.548,1780.709z
					 M3056.421,1819.812c-6.986,4.086-15.809,2.044-19.667-4.552c-3.859-6.597-1.315-15.289,5.671-19.375
					c6.985-4.086,15.808-2.043,19.667,4.554C3065.95,1807.034,3063.406,1815.726,3056.421,1819.812z"/>
			</g>
		</g>
		<g>
			<g>
				<g>
					<path style="fill:#FFC4B3;" d="M2536.102,1924.493c38.855,52.625,213.171,209.489,270.942,334.361
						c22.469,48.567-27.087,93.753-64.624,87.409c-22.11-3.736-58.24-18.263-90.661-48.637
						c-32.421-30.374-179.415-283.255-196.537-334.012C2438.101,1912.858,2497.246,1871.867,2536.102,1924.493z"/>
				</g>
			</g>
		</g>
		<g>
			<path style="fill:#E6E6E6;" d="M3005.216,1896.403l-19.281-54.101c0,0,239.488-20.537,299.241,67.712
				c0,0,165.451-80.538,297.099-51.635l-23.532,49.757l-270.102,44.439L3005.216,1896.403z"/>
			<g>
				<path style="fill:#BD393F;" d="M3346.886,1917.238c-39.146-1.971-78.333-1.971-117.479,0
					c-89.417-26.727-183.577-41.628-279.212-46.482c21.959,144.648,45.032,287.754,66.99,432.402
					c77.84,9.882,152.857,29.293,224.204,56.93c31.16-1.569,62.353-1.569,93.512,0c71.348-27.636,146.365-47.049,224.205-56.93
					c21.959-144.648,44.94-287.424,66.898-432.071C3530.37,1875.941,3436.303,1890.511,3346.886,1917.238z"/>
				<g>
					<path style="fill:#C93D43;" d="M3334.902,2368.82c-31.16-1.569-62.352-1.569-93.512,0
						c-3.994-147.616-7.989-295.233-11.983-442.849c39.146-1.971,78.332-1.971,117.479,0
						C3342.891,2073.587,3338.897,2221.204,3334.902,2368.82z"/>
					<path style="fill:#F14950;" d="M3334.902,2368.82c71.348-27.637,146.365-47.048,224.204-56.93
						c21.959-144.648,43.918-289.296,65.877-433.944c-95.635,4.854-188.681,21.297-278.098,48.024
						C3342.891,2073.587,3338.897,2221.204,3334.902,2368.82z"/>
					<path style="fill:#F14950;" d="M3017.186,2311.89c77.84,9.882,152.857,29.293,224.204,56.93
						c-3.994-147.616-7.989-295.233-11.983-442.849c-89.417-26.727-182.463-43.17-278.098-48.024
						C2973.268,2022.594,2995.227,2167.242,3017.186,2311.89z"/>
				</g>
			</g>
		</g>
		<g>
			<g>
				<g>
					<g>
						<path style="fill:#FFC4B3;" d="M3366.58,2326.844c0,0,287.339,96.482,411.75,74.174c172.276-30.89,71.325-154.739,2.49-156.79
							c-40.794-1.216-332.259-1.483-396.612-2.741C3354.481,2243.121,3314.096,2285.566,3366.58,2326.844z"/>
					</g>
				</g>
			</g>
			<g>
				<path style="fill:#FFC4B3;" d="M3408.091,2334.086c-26.413,13.252-58.844,3.131-88.272,3.739
					c-12,0.248-26.072-0.613-32.371-10.182c-3.538-5.374-3.583-12.194-3.52-18.628c0.202-20.701,24.15-44.448,25.683-71.191
					c1.076-18.769,19.224-45.232,28.592-41.758c26.359,9.775,87.376,44.011,89.24,58.759
					C3429.308,2269.572,3430.334,2322.926,3408.091,2334.086z"/>
				<path style="fill:#FFC4B3;" d="M3326.874,2217.232c-8.912-17.65-24.212-31.847-44.182-55.977
					c-13.305-16.077-1.118-42.719,12.064-30.967c11.784,10.505,46.262,43.298,52.212,48.998c5.95,5.7,27.283,40.232,28.569,49.72
					C3376.822,2238.493,3341.206,2245.617,3326.874,2217.232z"/>
				<path style="fill:#FFC4B3;" d="M3309.798,2252.929c-24.009-1.764-39.653-1.881-65.56-15.734
					c-22.04-11.786-64.181-30.769-86.643-42.938c-15.408-8.347,4.321-24.985,25.369-13.632c23.021,12.416,39.626,16.2,69.238,28.455
					c24.041,9.95,51.621,5.504,76.634,12.041C3345.667,2225.518,3327.186,2254.207,3309.798,2252.929z"/>
				<path style="fill:#FFC4B3;" d="M3312.446,2279.805c-29.292,2.798-38.171,11.78-67.829,7.819
					c-25.231-3.371-45.367-7.36-71.141-10.941c-17.679-2.456-3.503-23.01,14.146-20.558c26.388,3.666,21.448,1.597,54.009,2.82
					c26.436,0.993,50.833-12.514,76.911-15.005C3336.09,2242.265,3330.033,2278.125,3312.446,2279.805z"/>
				<path style="fill:#FFC4B3;" d="M3313.88,2316.027c-29.292,2.798-51.666,3.635-64.458,3.25c-5.93-0.178-32.539-0.588-39.54-2.351
					c-22.367-5.635-19.889-20.018-9.35-21.141c8.613-0.918,29.355-1.269,47.995-0.635c26.443,0.9,45.373-12.497,71.45-14.988
					C3337.525,2278.487,3331.467,2314.347,3313.88,2316.027z"/>
				<path style="fill:#FFC4B3;" d="M3305.426,2330.47c-8.19,8.933-30.216,20.276-30.216,20.276s-35.722-4.973-53.357-10.642
					c-16.501-5.304-13.634-18.453,2.691-15.955c15.637,2.393,44.846,3.734,48.783-0.303c3.624-3.717,14.632-14.161,18.133-17.98
					C3300.292,2296.232,3314.27,2320.824,3305.426,2330.47z"/>
			</g>
		</g>
		<g>
			<path style="fill:#FFC4B3;" d="M2462.725,1860.273c-0.164,0.249-28.297-12.212-69.662-21.585
				c-40.875-9.659-94.982-16.229-135.769-10.813c-35.03,5.079-28.605,26.335,6.027,29.03c17.295,1.427,56.329,5.095,94.244,13.347
				c38.131,7.96,75.142,20.503,93.383,32.971C2486.049,1928.522,2497.167,1873.625,2462.725,1860.273z"/>
			<path style="fill:#FFC4B3;" d="M2473.077,1905.76c-0.257,0.385-33.309-18.219-81.898-32.783
				c-47.7-15.091-110.937-26.141-151.02-22.812c-34.436,3.095-29.44,24.361,4.23,28.962c16.719,2.306,65.827,9.191,110.812,22.475
				c45.564,12.741,87.005,31.88,101.75,46.141C2485.255,1976.558,2502.186,1922.319,2473.077,1905.76z"/>
			<path style="fill:#FFC4B3;" d="M2487.87,1945.857c-0.268,0.362-29.671-18.996-74.022-34.977
				c-43.449-16.458-101.845-29.538-139.26-27.636c-32.154,1.878-27.939,23.292,3.148,29.131
				c15.429,2.915,60.737,11.542,101.629,26.229c41.485,14.188,78.554,34.436,91.205,49.1
				C2494.676,2017.299,2513.769,1963.108,2487.87,1945.857z"/>
			<path style="fill:#FFC4B3;" d="M2483.158,1976.22c-0.234,0.281-25.129-17.433-62.749-32.72
				c-36.857-15.661-86.438-28.895-118.415-28.278c-27.486,0.774-24.401,20.547,2.031,26.838
				c13.223,3.137,52.043,14.213,87.509,28.386c36.099,13.775,68.843,30.647,84.529,36.157
				C2504.225,2016.88,2505.402,1992.061,2483.158,1976.22z"/>
			<path style="fill:#FFC4B3;" d="M2438.071,1989.265c-0.043,0.026,10.726,8.746,24.37,15.717
				c13.902,6.919,30.679,12.088,48.587,3.832c16.17-7.778,47.007-74.164,5.77-114.327c-8.522-20.566-3.69-85.334-1.4-106.396
				c2.015-18.532-44.879-12.946-46.435,21.563c-1.089,24.156-6.908,61.812-31.371,60.993c-12.764-0.252-10.413,29.149-7.245,58.877
				C2433.887,1959.212,2438.245,1989.23,2438.071,1989.265z"/>
			<path style="fill:#F7AB94;" d="M2434.49,1888.254c-4.949-1.833-9.915-3.611-14.892-5.347c-4.985-1.716-9.991-3.364-15.025-4.917
				c-5.025-1.584-10.069-3.077-15.147-4.517l-7.587-2.208l-7.62-2.069c-20.354-5.38-40.97-9.757-61.749-13.057
				c-10.391-1.637-20.827-2.971-31.293-3.933c-10.461-1.012-20.97-1.495-31.457-1.35c-0.656,0.008-1.313-0.003-1.967,0.02
				l-1.961,0.094l-3.924,0.187c-2.624,0.092-5.189,0.422-7.757,0.82c-2.56,0.41-5.091,1-7.51,1.863
				c-2.416,0.852-4.738,2.013-6.603,3.665c-0.915,0.83-1.719,1.784-2.223,2.883c-0.491,1.099-0.665,2.322-0.476,3.524
				c0.182,1.204,0.699,2.363,1.385,3.423c0.697,1.06,1.595,1.991,2.539,2.87c1.945,1.709,4.208,3.068,6.564,4.21
				c2.357,1.154,4.83,2.081,7.35,2.862c-5.097-1.274-10.203-3.099-14.434-6.462c-1.023-0.873-2.012-1.81-2.817-2.926
				c-0.793-1.116-1.438-2.385-1.712-3.783c-0.283-1.393-0.141-2.893,0.393-4.229c0.543-1.336,1.428-2.474,2.418-3.453
				c2.027-1.932,4.493-3.225,7.006-4.208c2.522-0.989,5.134-1.681,7.765-2.188c2.626-0.503,5.299-0.892,7.946-1.046l3.975-0.279
				l1.988-0.139c0.663-0.038,1.325-0.042,1.988-0.065c21.234-0.79,42.381,1.513,63.288,4.657c10.442,1.708,20.838,3.675,31.169,5.94
				c10.317,2.328,20.578,4.9,30.737,7.837l7.605,2.248l7.55,2.408c5.025,1.599,10.056,3.241,15.036,5.005
				C2414.983,1880.165,2424.842,1883.969,2434.49,1888.254z"/>
			<path style="fill:#F7AB94;" d="M2442.002,1922.205c-2.33-0.953-4.668-1.885-7.013-2.796c-2.339-0.924-4.683-1.836-7.037-2.721
				c-4.708-1.774-9.436-3.46-14.21-5.062c-9.475-3.375-19.045-6.417-28.681-9.242c-9.64-2.808-19.353-5.363-29.132-7.614
				c-4.882-1.162-9.791-2.194-14.699-3.231l-7.387-1.423c-2.461-0.481-4.94-0.856-7.409-1.289
				c-9.883-1.673-19.826-2.998-29.804-3.772l-7.486-0.474l-7.491-0.191c-2.488,0.056-4.99,0.068-7.47,0.159
				c-2.461,0.135-4.915,0.405-7.327,0.844c-2.397,0.477-4.762,1.124-6.944,2.114l-0.817,0.373l-0.772,0.438
				c-0.532,0.272-1,0.62-1.477,0.957c-0.249,0.159-0.466,0.349-0.676,0.544l-0.647,0.572c-0.357,0.434-0.79,0.825-1.062,1.31
				c-0.344,0.449-0.541,0.962-0.78,1.459c-0.144,0.526-0.324,1.047-0.345,1.598c-0.086,1.085,0.044,2.224,0.5,3.285
				c0.08,0.275,0.22,0.531,0.353,0.79c0.139,0.255,0.244,0.528,0.41,0.772c0.332,0.487,0.625,1.001,1.026,1.448l0.569,0.694
				l0.633,0.646c0.406,0.447,0.883,0.828,1.336,1.234c1.857,1.582,3.978,2.884,6.194,3.994c2.219,1.11,4.542,2.041,6.927,2.787
				c1.181,0.412,2.4,0.702,3.604,1.049c1.22,0.286,2.436,0.58,3.667,0.845l7.371,1.646l-7.456-1.197
				c-1.241-0.201-2.483-0.448-3.725-0.679c-1.229-0.294-2.474-0.533-3.689-0.895c-2.45-0.647-4.856-1.485-7.187-2.523
				c-2.328-1.039-4.59-2.284-6.642-3.877c-0.506-0.408-1.024-0.801-1.483-1.271l-0.709-0.68l-0.654-0.744
				c-0.873-0.99-1.612-2.13-2.154-3.383c-0.575-1.24-0.818-2.67-0.746-4.08c0.012-0.716,0.207-1.403,0.386-2.092
				c0.271-0.652,0.524-1.322,0.926-1.896c0.338-0.625,0.826-1.114,1.259-1.656l0.743-0.704c0.247-0.237,0.5-0.466,0.777-0.656
				c0.539-0.404,1.077-0.815,1.659-1.134l0.859-0.512l0.889-0.433c2.379-1.146,4.885-1.889,7.406-2.452
				c2.529-0.523,5.078-0.863,7.638-1.063c2.546-0.142,5.078-0.182,7.62-0.277l7.603,0.086l7.586,0.372
				c10.1,0.696,20.133,2.01,30.101,3.648c9.963,1.678,19.852,3.748,29.656,6.145c9.797,2.423,19.546,5.053,29.153,8.141
				c9.621,3.033,19.143,6.398,28.509,10.109c4.694,1.813,9.369,3.72,13.997,5.706c2.315,0.994,4.622,2.005,6.916,3.042
				C2437.454,1920.042,2439.733,1921.114,2442.002,1922.205z"/>
			<path style="fill:#F7AB94;" d="M2433.694,1949.214l-6.891-2.717l-6.865-2.76l-6.904-2.658l-6.952-2.513
				c-9.285-3.301-18.678-6.279-28.138-8.998c-9.472-2.678-19.002-5.147-28.623-7.168c-9.612-2.044-19.301-3.753-29.048-4.749
				c-4.869-0.491-9.758-0.891-14.628-0.925l-3.652-0.033c-1.194,0.065-2.393,0.091-3.578,0.234c-2.372,0.237-4.719,0.66-6.921,1.388
				c-2.178,0.739-4.271,1.799-5.7,3.359c-1.461,1.539-2.004,3.59-1.527,5.631c0.259,1.017,0.723,2.009,1.314,2.952
				c0.643,0.916,1.346,1.814,2.199,2.603c1.656,1.618,3.625,2.972,5.718,4.111c2.096,1.14,4.324,2.07,6.607,2.852l1.725,0.556
				l1.751,0.483l3.579,0.949c4.78,1.297,9.523,2.686,14.249,4.13c4.719,1.466,9.421,2.983,14.108,4.54l7.019,2.368l6.979,2.482
				l-14.233-4.084c-4.749-1.339-9.509-2.636-14.281-3.881c-4.764-1.268-9.537-2.507-14.326-3.634
				c-1.203-0.292-2.382-0.529-3.604-0.839l-1.829-0.458l-1.812-0.536c-2.403-0.76-4.769-1.679-7.038-2.843
				c-2.265-1.166-4.442-2.574-6.364-4.361c-0.979-0.87-1.826-1.911-2.61-3.003c-0.739-1.135-1.36-2.384-1.725-3.76
				c-0.346-1.381-0.371-2.893-0.004-4.317c0.367-1.419,1.09-2.751,2.053-3.781c0.949-1.04,2.04-1.92,3.212-2.575
				c1.156-0.703,2.382-1.204,3.613-1.653c2.473-0.868,5.018-1.311,7.548-1.583c1.266-0.157,2.537-0.193,3.806-0.266l3.75,0.015
				c5.001,0.014,9.966,0.392,14.916,0.874c19.778,2.177,39.123,6.834,58.029,12.67c9.455,2.929,18.792,6.226,27.986,9.871
				C2415.791,1940.855,2424.76,1945.017,2433.694,1949.214z"/>
		</g>
	</g>
</g>
</svg>
